<svg width="20" height="20" viewBox="0 0 20 20" fill="none" xmlns="http://www.w3.org/2000/svg">
<g clip-path="url(#clip0_42_32)">
<path d="M18.3333 5.83341H12.5V4.16675H18.3333V5.83341ZM19.7717 14.1667C19.4033 15.2476 18.0808 16.6667 15.5208 16.6667C12.9592 16.6667 10.8842 15.2259 10.8842 11.9376C10.8842 8.67925 12.8217 7.00425 15.4392 7.00425C18.0075 7.00425 19.5758 8.48925 19.9183 10.6926C19.9833 11.1142 20.0092 11.6826 19.9975 12.4759H13.3083C13.4167 15.1517 16.2108 15.2359 17.1317 14.1667H19.7717ZM13.3667 10.8334H17.5042C17.4167 9.54425 16.5575 8.98425 15.44 8.98425C14.2183 8.98425 13.5425 9.62425 13.3667 10.8334ZM5.38833 16.6567H0V4.18425H5.79417C10.3575 4.25175 10.4442 8.72091 8.06083 9.93925C10.945 10.9892 11.0417 16.6567 5.38833 16.6567ZM2.5 9.16675H5.48667C7.57667 9.16675 7.90833 6.66675 5.22667 6.66675H2.5V9.16675ZM5.32583 11.6667H2.5V14.1801H5.28417C7.83 14.1801 7.67417 11.6667 5.32583 11.6667Z" fill="black"/>
</g>
<defs>
<clipPath id="clip0_42_32">
<rect width="20" height="20" fill="white"/>
</clipPath>
</defs>
</svg>
