<svg width="20" height="20" viewBox="0 0 20 20" fill="none" xmlns="http://www.w3.org/2000/svg">
<g clip-path="url(#clip0_42_6)">
<path d="M18.3334 10.0001C18.3348 11.0977 18.1187 12.1847 17.6975 13.1984C17.2764 14.212 16.6585 15.1321 15.8797 15.9055C15.1072 16.6766 14.1903 17.2879 13.1815 17.7045C12.1726 18.1211 11.0916 18.3348 10.0001 18.3334C5.39759 18.3334 1.66676 14.6026 1.66676 10.0001C1.66384 7.86333 2.48462 5.80765 3.95842 4.26051C4.73606 3.43992 5.67297 2.78665 6.71181 2.34066C7.75065 1.89468 8.86957 1.66537 10.0001 1.66676C11.0916 1.66534 12.1726 1.87904 13.1815 2.29564C14.1903 2.71223 15.1072 3.32356 15.8797 4.09467C16.6585 4.8681 17.2764 5.7882 17.6975 6.80182C18.1187 7.81543 18.3348 8.90246 18.3334 10.0001V10.0001Z" stroke="black" stroke-width="1.5" stroke-linecap="round" stroke-linejoin="round"/>
<path d="M18.3334 9.99998C17.1175 9.99998 13.7634 9.54165 10.7613 10.8596C7.50004 12.2916 5.13879 14.5129 4.10962 15.8946" stroke="black" stroke-width="1.5" stroke-linecap="round" stroke-linejoin="round"/>
<path d="M6.875 2.27271C8.17917 3.47646 11.025 6.54104 12.0833 9.58354C13.1417 12.626 13.5333 16.3669 13.775 17.4315" stroke="black" stroke-width="1.5" stroke-linecap="round" stroke-linejoin="round"/>
<path d="M1.73096 8.9583C3.30512 9.0533 7.47221 9.13872 10.1389 7.99997C12.8055 6.86122 15.1001 4.76663 15.8872 4.10205M2.29179 13.1721C3.02609 14.9495 4.35042 16.4197 6.04179 17.335" stroke="black" stroke-width="1.5" stroke-linecap="round" stroke-linejoin="round"/>
<path d="M1.66676 10.0001C1.66384 7.86332 2.48462 5.80765 3.95842 4.2605M10.0001 1.66675C8.86957 1.66537 7.75065 1.89468 6.71181 2.34066C5.67297 2.78665 4.73606 3.43992 3.95842 4.2605M13.3334 2.36009C14.2824 2.77531 15.1459 3.36352 15.8797 4.09467C16.6585 4.8681 17.2764 5.7882 17.6975 6.80182C18.1187 7.81543 18.3348 8.90246 18.3334 10.0001C18.3334 11.0259 18.148 12.0088 17.8084 12.9168M10.0001 18.3334C11.0916 18.3348 12.1726 18.1211 13.1815 17.7045C14.1903 17.2879 15.1072 16.6766 15.8797 15.9055" stroke="black" stroke-width="1.5" stroke-linecap="round" stroke-linejoin="round"/>
</g>
<defs>
<clipPath id="clip0_42_6">
<rect width="20" height="20" fill="white"/>
</clipPath>
</defs>
</svg>
